<!-- <svg width="42" height="42" viewBox="0 0 42 42" fill="none" xmlns="http://www.w3.org/2000/svg">
<rect width="42" height="42" rx="10" fill="#2E6FF2"/>
<path d="M32.9063 21C32.3019 21 31.8126 21.4808 31.8126 22.0748C31.8126 24.7075 29.6321 26.8504 26.9532 26.8504C24.2742 26.8504 22.0937 24.7075 22.0937 22.0748C22.0937 21.4808 21.6044 21 21 21C20.3956 21 19.9063 21.4808 19.9063 22.0748C19.9063 24.7075 17.7258 26.8504 15.0468 26.8504C12.3679 26.8504 10.1874 24.7075 10.1874 22.0748C10.1874 21.4808 9.6981 21 9.09369 21C8.48928 21 8 21.4808 8 22.0748C8 25.8932 11.1614 29 15.0468 29C17.5497 29 19.7497 27.7102 21 25.7733C22.2503 27.7102 24.4515 29 26.9532 29C30.8386 29 34 25.8932 34 22.0748C34 21.4808 33.5107 21 32.9063 21Z" fill="white"/>
<path d="M15 18C16.1046 18 17 17.1046 17 16C17 14.8954 16.1046 14 15 14C13.8954 14 13 14.8954 13 16C13 17.1046 13.8954 18 15 18Z" fill="white"/>
<path d="M27 18C28.1046 18 29 17.1046 29 16C29 14.8954 28.1046 14 27 14C25.8954 14 25 14.8954 25 16C25 17.1046 25.8954 18 27 18Z" fill="white"/>
</svg> -->
<svg version="1.1" xmlns="http://www.w3.org/2000/svg" viewBox="0 0 249.5 352.1943207750057" width="249.5" height="352.1943207750057">
  <!-- svg-source:excalidraw -->
  
  <defs>
    <style class="style-fonts">
      @font-face {
        font-family: "Virgil";
        src: url("https://excalidraw.com/Virgil.woff2");
      }
      @font-face {
        font-family: "Cascadia";
        src: url("https://excalidraw.com/Cascadia.woff2");
      }
      @font-face {
        font-family: "Assistant";
        src: url("https://excalidraw.com/Assistant-Regular.woff2");
      }
    </style>
    
  </defs>
  <rect x="0" y="0" width="249.5" height="352.1943207750057" fill="#ffffff"></rect><g stroke-linecap="round" transform="translate(10 92.69432077500568) rotate(0 114.75 124.75)"><path d="M32 0 C96.47 4.67, 159.98 -2.49, 197.5 0 C219.17 -1.32, 226.06 7.52, 229.5 32 C227.59 78.87, 232.48 125.18, 229.5 217.5 C226.03 240.05, 215.99 248.52, 197.5 249.5 C155.52 250.57, 111.53 248.99, 32 249.5 C10.88 251.92, -2.56 239.36, 0 217.5 C-4.2 170.85, -4.09 128.45, 0 32 C-2.36 8.46, 11.08 -0.48, 32 0" stroke="none" stroke-width="0" fill="#ffec99"></path><path d="M32 0 C89.91 -0.26, 149.39 0.75, 197.5 0 M32 0 C67.79 0.02, 105 0.13, 197.5 0 M197.5 0 C219.25 -0.9, 228.47 12.65, 229.5 32 M197.5 0 C218.68 1.21, 228.52 12.57, 229.5 32 M229.5 32 C227.05 103.48, 230.71 174.39, 229.5 217.5 M229.5 32 C229.15 101.76, 228.82 170.2, 229.5 217.5 M229.5 217.5 C231.01 238.35, 217.71 247.79, 197.5 249.5 M229.5 217.5 C230.75 238.23, 218.76 251.47, 197.5 249.5 M197.5 249.5 C156.85 246.18, 114.35 249.75, 32 249.5 M197.5 249.5 C164.53 249.07, 130.2 250.79, 32 249.5 M32 249.5 C10.19 249.04, 1.58 239.49, 0 217.5 M32 249.5 C9.21 249.88, -2.09 239.83, 0 217.5 M0 217.5 C-3.04 146.92, -1.4 73.3, 0 32 M0 217.5 C-0.77 172.35, -1.05 124.92, 0 32 M0 32 C0.09 10.56, 12.14 1.59, 32 0 M0 32 C-0.2 8.45, 12.28 1.89, 32 0" stroke="#1e1e1e" stroke-width="1" fill="none"></path></g><g transform="translate(29.00239789056684 10) rotate(0 98.1761849696259 151.62808018854733)"><text x="98.1761849696259" y="0" font-family="LocalFont, Segoe UI Emoji" font-size="252.71346698091193px" fill="#1e1e1e" text-anchor="middle" style="white-space: pre;" direction="ltr" dominant-baseline="text-before-edge">gh</text></g></svg>